#usda 1.0
(
    customLayerData = {
        dictionary cameraSettings = {
            dictionary Front = {
                double3 position = (5, 0, 0)
                double radius = 5
            }
            dictionary Perspective = {
                double3 position = (0.41458976858689134, -0.032057393701304435, 0.8108568223394629)
                double3 target = (-0.481795163343552, -0.27022527267799906, 1.0988920103876705)
            }
            dictionary Right = {
                double3 position = (0.08557535569556919, -5, 0.991338759468736)
                double radius = 1.742660140991211
            }
            dictionary Top = {
                double3 position = (0, 0, 5)
                double radius = 5
            }
            string boundCamera = "/OmniverseKit_Right"
        }
        dictionary omni_layer = {
            string authoring_layer = "./testfr3.usda"
            dictionary locked = {
            }
            dictionary muteness = {
            }
        }
        int refinementOverrideImplVersion = 0
        dictionary renderSettings = {
        }
    }
    defaultPrim = "World"
    endTimeCode = 1000000
    metersPerUnit = 1
    startTimeCode = 0
    timeCodesPerSecond = 60
    upAxis = "Z"
)

def Xform "World" (
    active = false
)
{
}

def Xform "Environment" (
    active = false
)
{
    quatd xformOp:orient = (1, 0, 0, 0)
    double3 xformOp:scale = (1, 1, 1)
    double3 xformOp:translate = (0, 0, 0)
    uniform token[] xformOpOrder = ["xformOp:translate", "xformOp:orient", "xformOp:scale"]

    def DistantLight "defaultLight" (
        prepend apiSchemas = ["ShapingAPI"]
    )
    {
        float inputs:angle = 1
        float inputs:intensity = 3000
        float inputs:shaping:cone:angle = 180
        float inputs:shaping:cone:softness
        float inputs:shaping:focus
        color3f inputs:shaping:focusTint
        asset inputs:shaping:ies:file
        quatd xformOp:orient = (0.6532814824381883, 0.2705980500730985, 0.27059805007309845, 0.6532814824381882)
        double3 xformOp:scale = (1, 1, 1)
        double3 xformOp:translate = (0, 0, 0)
        uniform token[] xformOpOrder = ["xformOp:translate", "xformOp:orient", "xformOp:scale"]
    }
}

def "Render" (
    hide_in_stage_window = true
    no_delete = true
)
{
    def "OmniverseKit"
    {
        def "HydraTextures" (
            hide_in_stage_window = true
            no_delete = true
        )
        {
            def RenderProduct "omni_kit_widget_viewport_ViewportTexture_0" (
                prepend apiSchemas = ["OmniRtxSettingsCommonAdvancedAPI_1", "OmniRtxSettingsRtAdvancedAPI_1", "OmniRtxSettingsPtAdvancedAPI_1", "OmniRtxPostColorGradingAPI_1", "OmniRtxPostChromaticAberrationAPI_1", "OmniRtxPostBloomPhysicalAPI_1", "OmniRtxPostMatteObjectAPI_1", "OmniRtxPostCompositingAPI_1", "OmniRtxPostDofAPI_1", "OmniRtxPostMotionBlurAPI_1", "OmniRtxPostTvNoiseAPI_1", "OmniRtxPostTonemapIrayReinhardAPI_1", "OmniRtxPostDebugSettingsAPI_1", "OmniRtxDebugSettingsAPI_1"]
                hide_in_stage_window = true
                no_delete = true
            )
            {
                rel camera = </OmniverseKit_Right>
                token omni:rtx:background:source:texture:textureMode = "repeatMirrored"
                token omni:rtx:background:source:type = "domeLight"
                bool omni:rtx:dlss:frameGeneration = 0
                string omni:rtx:material:db:rtSensorNameToIdMap = "DefaultMaterial:0;AsphaltStandardMaterial:1;AsphaltWeatheredMaterial:2;VegetationGrassMaterial:3;WaterStandardMaterial:4;GlassStandardMaterial:5;FiberGlassMaterial:6;MetalAlloyMaterial:7;MetalAluminumMaterial:8;MetalAluminumOxidizedMaterial:9;PlasticStandardMaterial:10;RetroMarkingsMaterial:11;RetroSignMaterial:12;RubberStandardMaterial:13;SoilClayMaterial:14;ConcreteRoughMaterial:15;ConcreteSmoothMaterial:16;OakTreeBarkMaterial:17;FabricStandardMaterial:18;PlexiGlassStandardMaterial:19;MetalSilverMaterial:20"
                bool omni:rtx:material:db:syncLoads = 1
                bool omni:rtx:post:registeredCompositing:invertColorCorrection = 1
                bool omni:rtx:post:registeredCompositing:invertToneMap = 1
                bool omni:rtx:pt:lightcache:cached:dontResolveConflicts = 1
                int omni:rtx:pt:maxSamplesPerLaunch = 2073600
                int omni:rtx:pt:mgpu:maxPixelsPerRegionExponent = 12
                color3f omni:rtx:rt:ambientLight:color = (0.1, 0.1, 0.1)
                bool omni:rtx:rt:demoire = 0
                bool omni:rtx:rt:ecoMode:enabled
                bool omni:rtx:rt:lightcache:spatialCache:dontResolveConflicts = 1
                bool omni:rtx:scene:hydra:materialSyncLoads = 1
                bool omni:rtx:scene:hydra:mdlMaterialWarmup = 1
                bool omni:rtx:scene:useViewLightingMode
                uint omni:rtx:viewTile:limit = 4294967295
                rel orderedVars = </Render/Vars/LdrColor>
                custom bool overrideClipRange = 0
                uniform int2 resolution = (1280, 720)
            }
        }
    }

    def RenderSettings "OmniverseGlobalRenderSettings" (
        prepend apiSchemas = ["OmniRtxSettingsGlobalRtAdvancedAPI_1", "OmniRtxSettingsGlobalPtAdvancedAPI_1"]
        no_delete = true
    )
    {
        rel products = </Render/OmniverseKit/HydraTextures/omni_kit_widget_viewport_ViewportTexture_0>
    }

    def "Vars"
    {
        def RenderVar "LdrColor" (
            hide_in_stage_window = true
            no_delete = true
        )
        {
            uniform string sourceName = "LdrColor"
        }
    }
}

def "fr3" (
    delete payload = @https://omniverse-content-production.s3-us-west-2.amazonaws.com/Assets/Isaac/5.0/Isaac/Robots/FrankaRobotics/FrankaFR3/fr3.usd@
    prepend references = @https://omniverse-content-production.s3-us-west-2.amazonaws.com/Assets/Isaac/5.0/Isaac/Robots/FrankaRobotics/FrankaFR3/fr3.usd@
)
{
    string isaac:namespace (
        displayName = "Namespace"
        doc = "Namespace of the prim in Isaac Sim"
    )
    quatd xformOp:orient = (1, 0, 0, 0)
    double3 xformOp:scale = (1, 1, 1)
    double3 xformOp:translate = (0, 0, 0)
    uniform token[] xformOpOrder = ["xformOp:translate", "xformOp:orient", "xformOp:scale"]

    over "fr3_leftfinger" (
        active = false
    )
    {
        string isaac:nameOverride (
            displayName = "Name Override"
            doc = "Name override for prim lookup in base name search"
        )
        rel physics:simulationOwner

        over "collisions"
        {
            over "mesh_0"
            {
                rel physics:simulationOwner
            }

            over "mesh_1"
            {
                rel physics:simulationOwner
            }

            over "mesh_2"
            {
                rel physics:simulationOwner
            }

            over "mesh_3"
            {
                rel physics:simulationOwner
            }
        }
    }

    over "fr3_rightfinger" (
        active = false
        kind = ""
    )
    {
        string isaac:nameOverride (
            displayName = "Name Override"
            doc = "Name override for prim lookup in base name search"
        )
        rel physics:simulationOwner

        over "collisions"
        {
            over "mesh_0"
            {
                rel physics:simulationOwner
            }

            over "mesh_1"
            {
                rel physics:simulationOwner
            }

            over "mesh_2"
            {
                rel physics:simulationOwner
            }

            over "mesh_3"
            {
                rel physics:simulationOwner
            }
        }
    }

    over "fr3_link1"
    {
        rel physics:simulationOwner

        over "collisions"
        {
            rel physics:simulationOwner
        }

        over "fr3_joint2"
        {
            float physics:lowerLimit = -102.19848
            float physics:upperLimit = 102.19848
            float state:angular:physics:position = 0
            float state:angular:physics:velocity = 0
        }
    }

    over "fr3_link3"
    {
        rel physics:simulationOwner

        over "collisions"
        {
            rel physics:simulationOwner
        }

        over "fr3_joint4"
        {
            float drive:angular:physics:targetPosition = -69.1
            float physics:lowerLimit = -174.29948
            float physics:upperLimit = -8.697499
            float state:angular:physics:position = 0
            float state:angular:physics:velocity = 0
        }
    }

    over "fr3_hand_tcp" (
        active = false
        kind = ""
    )
    {
        string isaac:nameOverride (
            displayName = "Name Override"
            doc = "Name override for prim lookup in base name search"
        )
        rel physics:simulationOwner

        def Mesh "Cylinder"
        {
            float3[] extent = [(-0.5, -0.5, -0.5), (0.5, 0.5, 0.5)]
            int[] faceVertexCounts = [4, 4, 4, 4, 4, 4, 4, 4, 4, 4, 4, 4, 4, 4, 4, 4, 4, 4, 4, 4, 4, 4, 4, 4, 4, 4, 4, 4, 4, 4, 4, 4, 3, 3, 3, 3, 3, 3, 3, 3, 3, 3, 3, 3, 3, 3, 3, 3, 3, 3, 3, 3, 3, 3, 3, 3, 3, 3, 3, 3, 3, 3, 3, 3, 3, 3, 3, 3, 3, 3, 3, 3, 3, 3, 3, 3, 3, 3, 3, 3, 3, 3, 3, 3, 3, 3, 3, 3, 3, 3, 3, 3, 3, 3, 3, 3]
            int[] faceVertexIndices = [0, 1, 33, 32, 1, 2, 34, 33, 2, 3, 35, 34, 3, 4, 36, 35, 4, 5, 37, 36, 5, 6, 38, 37, 6, 7, 39, 38, 7, 8, 40, 39, 8, 9, 41, 40, 9, 10, 42, 41, 10, 11, 43, 42, 11, 12, 44, 43, 12, 13, 45, 44, 13, 14, 46, 45, 14, 15, 47, 46, 15, 16, 48, 47, 16, 17, 49, 48, 17, 18, 50, 49, 18, 19, 51, 50, 19, 20, 52, 51, 20, 21, 53, 52, 21, 22, 54, 53, 22, 23, 55, 54, 23, 24, 56, 55, 24, 25, 57, 56, 25, 26, 58, 57, 26, 27, 59, 58, 27, 28, 60, 59, 28, 29, 61, 60, 29, 30, 62, 61, 30, 31, 63, 62, 31, 0, 32, 63, 0, 64, 1, 1, 64, 2, 2, 64, 3, 3, 64, 4, 4, 64, 5, 5, 64, 6, 6, 64, 7, 7, 64, 8, 8, 64, 9, 9, 64, 10, 10, 64, 11, 11, 64, 12, 12, 64, 13, 13, 64, 14, 14, 64, 15, 15, 64, 16, 16, 64, 17, 17, 64, 18, 18, 64, 19, 19, 64, 20, 20, 64, 21, 21, 64, 22, 22, 64, 23, 23, 64, 24, 24, 64, 25, 25, 64, 26, 26, 64, 27, 27, 64, 28, 28, 64, 29, 29, 64, 30, 30, 64, 31, 31, 64, 0, 32, 33, 65, 33, 34, 65, 34, 35, 65, 35, 36, 65, 36, 37, 65, 37, 38, 65, 38, 39, 65, 39, 40, 65, 40, 41, 65, 41, 42, 65, 42, 43, 65, 43, 44, 65, 44, 45, 65, 45, 46, 65, 46, 47, 65, 47, 48, 65, 48, 49, 65, 49, 50, 65, 50, 51, 65, 51, 52, 65, 52, 53, 65, 53, 54, 65, 54, 55, 65, 55, 56, 65, 56, 57, 65, 57, 58, 65, 58, 59, 65, 59, 60, 65, 60, 61, 65, 61, 62, 65, 62, 63, 65, 63, 32, 65]
            normal3f[] normals = [(50, 0, 0), (49.03926, 9.754517, 0), (49.03926, 9.754517, 0), (50, 0, 0), (49.03926, 9.754517, 0), (46.193974, 19.13417, 0), (46.193974, 19.13417, 0), (49.03926, 9.754517, 0), (46.193974, 19.13417, 0), (41.57348, 27.778513, 0), (41.57348, 27.778513, 0), (46.193974, 19.13417, 0), (41.57348, 27.778513, 0), (35.35534, 35.35534, 0), (35.35534, 35.35534, 0), (41.57348, 27.778513, 0), (35.35534, 35.35534, 0), (27.778513, 41.57348, 0), (27.778513, 41.57348, 0), (35.35534, 35.35534, 0), (27.778513, 41.57348, 0), (19.13417, 46.193974, 0), (19.13417, 46.193974, 0), (27.778513, 41.57348, 0), (19.13417, 46.193974, 0), (9.754517, 49.03926, 0), (9.754517, 49.03926, 0), (19.13417, 46.193974, 0), (9.754517, 49.03926, 0), (3.061617e-15, 50, 0), (3.061617e-15, 50, 0), (9.754517, 49.03926, 0), (3.061617e-15, 50, 0), (-9.754517, 49.03926, 0), (-9.754517, 49.03926, 0), (3.061617e-15, 50, 0), (-9.754517, 49.03926, 0), (-19.13417, 46.193974, 0), (-19.13417, 46.193974, 0), (-9.754517, 49.03926, 0), (-19.13417, 46.193974, 0), (-27.778513, 41.57348, 0), (-27.778513, 41.57348, 0), (-19.13417, 46.193974, 0), (-27.778513, 41.57348, 0), (-35.35534, 35.35534, 0), (-35.35534, 35.35534, 0), (-27.778513, 41.57348, 0), (-35.35534, 35.35534, 0), (-41.57348, 27.778513, 0), (-41.57348, 27.778513, 0), (-35.35534, 35.35534, 0), (-41.57348, 27.778513, 0), (-46.193974, 19.13417, 0), (-46.193974, 19.13417, 0), (-41.57348, 27.778513, 0), (-46.193974, 19.13417, 0), (-49.03926, 9.754517, 0), (-49.03926, 9.754517, 0), (-46.193974, 19.13417, 0), (-49.03926, 9.754517, 0), (-50, 6.123234e-15, 0), (-50, 6.123234e-15, 0), (-49.03926, 9.754517, 0), (-50, 6.123234e-15, 0), (-49.03926, -9.754517, 0), (-49.03926, -9.754517, 0), (-50, 6.123234e-15, 0), (-49.03926, -9.754517, 0), (-46.193974, -19.13417, 0), (-46.193974, -19.13417, 0), (-49.03926, -9.754517, 0), (-46.193974, -19.13417, 0), (-41.57348, -27.778513, 0), (-41.57348, -27.778513, 0), (-46.193974, -19.13417, 0), (-41.57348, -27.778513, 0), (-35.35534, -35.35534, 0), (-35.35534, -35.35534, 0), (-41.57348, -27.778513, 0), (-35.35534, -35.35534, 0), (-27.778513, -41.57348, 0), (-27.778513, -41.57348, 0), (-35.35534, -35.35534, 0), (-27.778513, -41.57348, 0), (-19.13417, -46.193974, 0), (-19.13417, -46.193974, 0), (-27.778513, -41.57348, 0), (-19.13417, -46.193974, 0), (-9.754517, -49.03926, 0), (-9.754517, -49.03926, 0), (-19.13417, -46.193974, 0), (-9.754517, -49.03926, 0), (-9.184851e-15, -50, 0), (-9.184851e-15, -50, 0), (-9.754517, -49.03926, 0), (-9.184851e-15, -50, 0), (9.754517, -49.03926, 0), (9.754517, -49.03926, 0), (-9.184851e-15, -50, 0), (9.754517, -49.03926, 0), (19.13417, -46.193974, 0), (19.13417, -46.193974, 0), (9.754517, -49.03926, 0), (19.13417, -46.193974, 0), (27.778513, -41.57348, 0), (27.778513, -41.57348, 0), (19.13417, -46.193974, 0), (27.778513, -41.57348, 0), (35.35534, -35.35534, 0), (35.35534, -35.35534, 0), (27.778513, -41.57348, 0), (35.35534, -35.35534, 0), (41.57348, -27.778513, 0), (41.57348, -27.778513, 0), (35.35534, -35.35534, 0), (41.57348, -27.778513, 0), (46.193974, -19.13417, 0), (46.193974, -19.13417, 0), (41.57348, -27.778513, 0), (46.193974, -19.13417, 0), (49.03926, -9.754517, 0), (49.03926, -9.754517, 0), (46.193974, -19.13417, 0), (49.03926, -9.754517, 0), (50, 0, 0), (50, 0, 0), (49.03926, -9.754517, 0), (0, 0, -1), (0, 0, -1), (0, 0, -1), (0, 0, -1), (0, 0, -1), (0, 0, -1), (0, 0, -1), (0, 0, -1), (0, 0, -1), (0, 0, -1), (0, 0, -1), (0, 0, -1), (0, 0, -1), (0, 0, -1), (0, 0, -1), (0, 0, -1), (0, 0, -1), (0, 0, -1), (0, 0, -1), (0, 0, -1), (0, 0, -1), (0, 0, -1), (0, 0, -1), (0, 0, -1), (0, 0, -1), (0, 0, -1), (0, 0, -1), (0, 0, -1), (0, 0, -1), (0, 0, -1), (0, 0, -1), (0, 0, -1), (0, 0, -1), (0, 0, -1), (0, 0, -1), (0, 0, -1), (0, 0, -1), (0, 0, -1), (0, 0, -1), (0, 0, -1), (0, 0, -1), (0, 0, -1), (0, 0, -1), (0, 0, -1), (0, 0, -1), (0, 0, -1), (0, 0, -1), (0, 0, -1), (0, 0, -1), (0, 0, -1), (0, 0, -1), (0, 0, -1), (0, 0, -1), (0, 0, -1), (0, 0, -1), (0, 0, -1), (0, 0, -1), (0, 0, -1), (0, 0, -1), (0, 0, -1), (0, 0, -1), (0, 0, -1), (0, 0, -1), (0, 0, -1), (0, 0, -1), (0, 0, -1), (0, 0, -1), (0, 0, -1), (0, 0, -1), (0, 0, -1), (0, 0, -1), (0, 0, -1), (0, 0, -1), (0, 0, -1), (0, 0, -1), (0, 0, -1), (0, 0, -1), (0, 0, -1), (0, 0, -1), (0, 0, -1), (0, 0, -1), (0, 0, -1), (0, 0, -1), (0, 0, -1), (0, 0, -1), (0, 0, -1), (0, 0, -1), (0, 0, -1), (0, 0, -1), (0, 0, -1), (0, 0, -1), (0, 0, -1), (0, 0, -1), (0, 0, -1), (0, 0, -1), (0, 0, -1), (0, 0, 1), (0, 0, 1), (0, 0, 1), (0, 0, 1), (0, 0, 1), (0, 0, 1), (0, 0, 1), (0, 0, 1), (0, 0, 1), (0, 0, 1), (0, 0, 1), (0, 0, 1), (0, 0, 1), (0, 0, 1), (0, 0, 1), (0, 0, 1), (0, 0, 1), (0, 0, 1), (0, 0, 1), (0, 0, 1), (0, 0, 1), (0, 0, 1), (0, 0, 1), (0, 0, 1), (0, 0, 1), (0, 0, 1), (0, 0, 1), (0, 0, 1), (0, 0, 1), (0, 0, 1), (0, 0, 1), (0, 0, 1), (0, 0, 1), (0, 0, 1), (0, 0, 1), (0, 0, 1), (0, 0, 1), (0, 0, 1), (0, 0, 1), (0, 0, 1), (0, 0, 1), (0, 0, 1), (0, 0, 1), (0, 0, 1), (0, 0, 1), (0, 0, 1), (0, 0, 1), (0, 0, 1), (0, 0, 1), (0, 0, 1), (0, 0, 1), (0, 0, 1), (0, 0, 1), (0, 0, 1), (0, 0, 1), (0, 0, 1), (0, 0, 1), (0, 0, 1), (0, 0, 1), (0, 0, 1), (0, 0, 1), (0, 0, 1), (0, 0, 1), (0, 0, 1), (0, 0, 1), (0, 0, 1), (0, 0, 1), (0, 0, 1), (0, 0, 1), (0, 0, 1), (0, 0, 1), (0, 0, 1), (0, 0, 1), (0, 0, 1), (0, 0, 1), (0, 0, 1), (0, 0, 1), (0, 0, 1), (0, 0, 1), (0, 0, 1), (0, 0, 1), (0, 0, 1), (0, 0, 1), (0, 0, 1), (0, 0, 1), (0, 0, 1), (0, 0, 1), (0, 0, 1), (0, 0, 1), (0, 0, 1), (0, 0, 1), (0, 0, 1), (0, 0, 1), (0, 0, 1), (0, 0, 1), (0, 0, 1)] (
                interpolation = "faceVarying"
            )
            point3f[] points = [(0.5, 0, -0.5), (0.4903926, 0.09754517, -0.5), (0.46193972, 0.1913417, -0.5), (0.4157348, 0.27778512, -0.5), (0.35355338, 0.35355338, -0.5), (0.27778512, 0.4157348, -0.5), (0.1913417, 0.46193972, -0.5), (0.09754517, 0.4903926, -0.5), (3.061617e-17, 0.5, -0.5), (-0.09754517, 0.4903926, -0.5), (-0.1913417, 0.46193972, -0.5), (-0.27778512, 0.4157348, -0.5), (-0.35355338, 0.35355338, -0.5), (-0.4157348, 0.27778512, -0.5), (-0.46193972, 0.1913417, -0.5), (-0.4903926, 0.09754517, -0.5), (-0.5, 6.123234e-17, -0.5), (-0.4903926, -0.09754517, -0.5), (-0.46193972, -0.1913417, -0.5), (-0.4157348, -0.27778512, -0.5), (-0.35355338, -0.35355338, -0.5), (-0.27778512, -0.4157348, -0.5), (-0.1913417, -0.46193972, -0.5), (-0.09754517, -0.4903926, -0.5), (-9.184851e-17, -0.5, -0.5), (0.09754517, -0.4903926, -0.5), (0.1913417, -0.46193972, -0.5), (0.27778512, -0.4157348, -0.5), (0.35355338, -0.35355338, -0.5), (0.4157348, -0.27778512, -0.5), (0.46193972, -0.1913417, -0.5), (0.4903926, -0.09754517, -0.5), (0.5, 0, 0.5), (0.4903926, 0.09754517, 0.5), (0.46193972, 0.1913417, 0.5), (0.4157348, 0.27778512, 0.5), (0.35355338, 0.35355338, 0.5), (0.27778512, 0.4157348, 0.5), (0.1913417, 0.46193972, 0.5), (0.09754517, 0.4903926, 0.5), (3.061617e-17, 0.5, 0.5), (-0.09754517, 0.4903926, 0.5), (-0.1913417, 0.46193972, 0.5), (-0.27778512, 0.4157348, 0.5), (-0.35355338, 0.35355338, 0.5), (-0.4157348, 0.27778512, 0.5), (-0.46193972, 0.1913417, 0.5), (-0.4903926, 0.09754517, 0.5), (-0.5, 6.123234e-17, 0.5), (-0.4903926, -0.09754517, 0.5), (-0.46193972, -0.1913417, 0.5), (-0.4157348, -0.27778512, 0.5), (-0.35355338, -0.35355338, 0.5), (-0.27778512, -0.4157348, 0.5), (-0.1913417, -0.46193972, 0.5), (-0.09754517, -0.4903926, 0.5), (-9.184851e-17, -0.5, 0.5), (0.09754517, -0.4903926, 0.5), (0.1913417, -0.46193972, 0.5), (0.27778512, -0.4157348, 0.5), (0.35355338, -0.35355338, 0.5), (0.4157348, -0.27778512, 0.5), (0.46193972, -0.1913417, 0.5), (0.4903926, -0.09754517, 0.5), (0, 0, -0.5), (0, 0, 0.5)]
            texCoord2f[] primvars:st = [(0, 0), (0.03125, 0), (0.03125, 1), (0, 1), (0.03125, 0), (0.0625, 0), (0.0625, 1), (0.03125, 1), (0.0625, 0), (0.09375, 0), (0.09375, 1), (0.0625, 1), (0.09375, 0), (0.125, 0), (0.125, 1), (0.09375, 1), (0.125, 0), (0.15625, 0), (0.15625, 1), (0.125, 1), (0.15625, 0), (0.1875, 0), (0.1875, 1), (0.15625, 1), (0.1875, 0), (0.21875, 0), (0.21875, 1), (0.1875, 1), (0.21875, 0), (0.25, 0), (0.25, 1), (0.21875, 1), (0.25, 0), (0.28125, 0), (0.28125, 1), (0.25, 1), (0.28125, 0), (0.3125, 0), (0.3125, 1), (0.28125, 1), (0.3125, 0), (0.34375, 0), (0.34375, 1), (0.3125, 1), (0.34375, 0), (0.375, 0), (0.375, 1), (0.34375, 1), (0.375, 0), (0.40625, 0), (0.40625, 1), (0.375, 1), (0.40625, 0), (0.4375, 0), (0.4375, 1), (0.40625, 1), (0.4375, 0), (0.46875, 0), (0.46875, 1), (0.4375, 1), (0.46875, 0), (0.5, 0), (0.5, 1), (0.46875, 1), (0.5, 0), (0.53125, 0), (0.53125, 1), (0.5, 1), (0.53125, 0), (0.5625, 0), (0.5625, 1), (0.53125, 1), (0.5625, 0), (0.59375, 0), (0.59375, 1), (0.5625, 1), (0.59375, 0), (0.625, 0), (0.625, 1), (0.59375, 1), (0.625, 0), (0.65625, 0), (0.65625, 1), (0.625, 1), (0.65625, 0), (0.6875, 0), (0.6875, 1), (0.65625, 1), (0.6875, 0), (0.71875, 0), (0.71875, 1), (0.6875, 1), (0.71875, 0), (0.75, 0), (0.75, 1), (0.71875, 1), (0.75, 0), (0.78125, 0), (0.78125, 1), (0.75, 1), (0.78125, 0), (0.8125, 0), (0.8125, 1), (0.78125, 1), (0.8125, 0), (0.84375, 0), (0.84375, 1), (0.8125, 1), (0.84375, 0), (0.875, 0), (0.875, 1), (0.84375, 1), (0.875, 0), (0.90625, 0), (0.90625, 1), (0.875, 1), (0.90625, 0), (0.9375, 0), (0.9375, 1), (0.90625, 1), (0.9375, 0), (0.96875, 0), (0.96875, 1), (0.9375, 1), (0.96875, 0), (1, 0), (1, 1), (0.96875, 1), (1, 0.5), (0.5, 0.5), (0.99039257, 0.40245485), (0.99039257, 0.40245485), (0.5, 0.5), (0.9619397, 0.3086583), (0.9619397, 0.3086583), (0.5, 0.5), (0.91573477, 0.22221488), (0.91573477, 0.22221488), (0.5, 0.5), (0.8535534, 0.14644659), (0.8535534, 0.14644659), (0.5, 0.5), (0.7777851, 0.08426523), (0.7777851, 0.08426523), (0.5, 0.5), (0.6913417, 0.038060308), (0.6913417, 0.038060308), (0.5, 0.5), (0.59754515, 0.009607434), (0.59754515, 0.009607434), (0.5, 0.5), (0.5, 0), (0.5, 0), (0.5, 0.5), (0.40245482, 0.009607434), (0.40245482, 0.009607434), (0.5, 0.5), (0.3086583, 0.038060308), (0.3086583, 0.038060308), (0.5, 0.5), (0.22221488, 0.08426523), (0.22221488, 0.08426523), (0.5, 0.5), (0.14644662, 0.14644659), (0.14644662, 0.14644659), (0.5, 0.5), (0.0842652, 0.22221488), (0.0842652, 0.22221488), (0.5, 0.5), (0.038060278, 0.3086583), (0.038060278, 0.3086583), (0.5, 0.5), (0.0096074045, 0.40245485), (0.0096074045, 0.40245485), (0.5, 0.5), (0, 0.5), (0, 0.5), (0.5, 0.5), (0.0096074045, 0.59754515), (0.0096074045, 0.59754515), (0.5, 0.5), (0.038060278, 0.6913417), (0.038060278, 0.6913417), (0.5, 0.5), (0.0842652, 0.7777851), (0.0842652, 0.7777851), (0.5, 0.5), (0.14644662, 0.8535534), (0.14644662, 0.8535534), (0.5, 0.5), (0.22221488, 0.91573477), (0.22221488, 0.91573477), (0.5, 0.5), (0.3086583, 0.9619397), (0.3086583, 0.9619397), (0.5, 0.5), (0.40245482, 0.99039257), (0.40245482, 0.99039257), (0.5, 0.5), (0.5, 1), (0.5, 1), (0.5, 0.5), (0.59754515, 0.99039257), (0.59754515, 0.99039257), (0.5, 0.5), (0.6913417, 0.9619397), (0.6913417, 0.9619397), (0.5, 0.5), (0.7777851, 0.91573477), (0.7777851, 0.91573477), (0.5, 0.5), (0.8535534, 0.8535534), (0.8535534, 0.8535534), (0.5, 0.5), (0.91573477, 0.7777851), (0.91573477, 0.7777851), (0.5, 0.5), (0.9619397, 0.6913417), (0.9619397, 0.6913417), (0.5, 0.5), (0.99039257, 0.59754515), (0.99039257, 0.59754515), (0.5, 0.5), (1, 0.5), (1, 0.5), (0.99039257, 0.59754515), (0.5, 0.5), (0.99039257, 0.59754515), (0.9619397, 0.6913417), (0.5, 0.5), (0.9619397, 0.6913417), (0.91573477, 0.7777851), (0.5, 0.5), (0.91573477, 0.7777851), (0.8535534, 0.8535534), (0.5, 0.5), (0.8535534, 0.8535534), (0.7777851, 0.91573477), (0.5, 0.5), (0.7777851, 0.91573477), (0.6913417, 0.9619397), (0.5, 0.5), (0.6913417, 0.9619397), (0.59754515, 0.99039257), (0.5, 0.5), (0.59754515, 0.99039257), (0.5, 1), (0.5, 0.5), (0.5, 1), (0.40245482, 0.99039257), (0.5, 0.5), (0.40245482, 0.99039257), (0.3086583, 0.9619397), (0.5, 0.5), (0.3086583, 0.9619397), (0.22221488, 0.91573477), (0.5, 0.5), (0.22221488, 0.91573477), (0.14644662, 0.8535534), (0.5, 0.5), (0.14644662, 0.8535534), (0.0842652, 0.7777851), (0.5, 0.5), (0.0842652, 0.7777851), (0.038060278, 0.6913417), (0.5, 0.5), (0.038060278, 0.6913417), (0.0096074045, 0.59754515), (0.5, 0.5), (0.0096074045, 0.59754515), (0, 0.5), (0.5, 0.5), (0, 0.5), (0.0096074045, 0.40245482), (0.5, 0.5), (0.0096074045, 0.40245482), (0.038060278, 0.3086583), (0.5, 0.5), (0.038060278, 0.3086583), (0.0842652, 0.22221488), (0.5, 0.5), (0.0842652, 0.22221488), (0.14644662, 0.14644662), (0.5, 0.5), (0.14644662, 0.14644662), (0.22221488, 0.0842652), (0.5, 0.5), (0.22221488, 0.0842652), (0.3086583, 0.038060278), (0.5, 0.5), (0.3086583, 0.038060278), (0.40245482, 0.0096074045), (0.5, 0.5), (0.40245482, 0.0096074045), (0.5, 0), (0.5, 0.5), (0.5, 0), (0.59754515, 0.0096074045), (0.5, 0.5), (0.59754515, 0.0096074045), (0.6913417, 0.038060278), (0.5, 0.5), (0.6913417, 0.038060278), (0.7777851, 0.0842652), (0.5, 0.5), (0.7777851, 0.0842652), (0.8535534, 0.14644662), (0.5, 0.5), (0.8535534, 0.14644662), (0.91573477, 0.22221488), (0.5, 0.5), (0.91573477, 0.22221488), (0.9619397, 0.3086583), (0.5, 0.5), (0.9619397, 0.3086583), (0.99039257, 0.40245482), (0.5, 0.5), (0.99039257, 0.40245482), (1, 0.5), (0.5, 0.5)] (
                interpolation = "faceVarying"
            )
            uniform token subdivisionScheme = "none"
            quatd xformOp:orient = (1, 0, 0, 0)
            double3 xformOp:scale = (0.1, 0.1, 0.1)
            double3 xformOp:translate = (0.088, 0, 0.92)
            uniform token[] xformOpOrder = ["xformOp:translate", "xformOp:orient", "xformOp:scale"]
        }
    }

    over "fr3_link4"
    {
        rel physics:simulationOwner

        over "collisions"
        {
            rel physics:simulationOwner
        }

        over "fr3_joint5"
        {
            float drive:angular:physics:targetPosition = -10.3
            float physics:lowerLimit = -162.8
            float physics:upperLimit = 160.8006
            float state:angular:physics:position = 0
            float state:angular:physics:velocity = 0
        }
    }

    over "fr3_hand" (
        active = false
    )
    {
        string isaac:nameOverride (
            displayName = "Name Override"
            doc = "Name override for prim lookup in base name search"
        )
        rel physics:simulationOwner

        over "collisions"
        {
            rel physics:simulationOwner
        }

        over "fr3_finger_joint1"
        {
            float physics:lowerLimit = 0
            float physics:upperLimit = 0.04
            float state:linear:physics:position = 2.057816e-8
            float state:linear:physics:velocity = 0
        }

        over "fr3_finger_joint2"
        {
            float state:linear:physics:position = 1.8522725e-7
            float state:linear:physics:velocity = 0
        }
    }

    over "fr3_link0"
    {
        rel physics:simulationOwner

        over "collisions"
        {
            rel physics:simulationOwner
        }

        over "fr3_joint1"
        {
            float drive:angular:physics:targetPosition = -46
            custom string isaac:nameOverride (
                displayName = "Name Override"
                doc = "Name override for prim lookup in base name search"
            )
            float physics:lowerLimit = -155.40001
            float physics:upperLimit = 157.20242
            float state:angular:physics:position = 0
            float state:angular:physics:velocity = 0
        }
    }

    over "fr3_link7"
    {
        string isaac:nameOverride (
            displayName = "Name Override"
            doc = "Name override for prim lookup in base name search"
        )
        rel physics:simulationOwner

        over "collisions"
        {
            rel physics:simulationOwner
        }

        over "fr3_joint8"
        {
            custom string isaac:nameOverride (
                displayName = "Name Override"
                doc = "Name override for prim lookup in base name search"
            )
            rel physics:body1 = </fr3/ee>
            point3f physics:localPos0 = (2.2828578e-8, -4.982948e-8, 0.11299999)
            point3f physics:localPos1 = (0, 0, 0)
            quatf physics:localRot0 = (-1.6081226e-16, 1, 0, 0)
            quatf physics:localRot1 = (1, 6.7401135e-10, -3.0752208e-8, -6.8154624e-9)
        }
    }

    over "fr3_link5"
    {
        rel physics:simulationOwner

        over "collisions"
        {
            rel physics:simulationOwner
        }

        over "fr3_joint6"
        {
            float drive:angular:physics:targetPosition = 187.7
            float physics:lowerLimit = 31.19755
            float physics:upperLimit = 258.7993
            float state:angular:physics:position = 0
            float state:angular:physics:velocity = 0
        }
    }

    over "fr3_link8" (
        active = false
    )
    {
        string isaac:nameOverride (
            displayName = "Name Override"
            doc = "Name override for prim lookup in base name search"
        )
        rel physics:simulationOwner

        over "fr3_hand_joint" (
            active = false
        )
        {
            custom string isaac:nameOverride (
                displayName = "Name Override"
                doc = "Name override for prim lookup in base name search"
            )
            rel physics:body1 = </fr3/ee>
            bool physics:jointEnabled = 1
            point3f physics:localPos1 = (-2.2828578e-7, -4.982948e-7, 0.05999999)
            quatf physics:localRot1 = (5.5463793e-17, 0.9238795, 0.38268352, -4.8387406e-18)
        }
    }

    over "fr3_link2"
    {
        string isaac:nameOverride (
            displayName = "Name Override"
            doc = "Name override for prim lookup in base name search"
        )
        rel physics:simulationOwner

        over "collisions"
        {
            rel physics:simulationOwner
        }

        over "fr3_joint3"
        {
            float drive:angular:physics:targetPosition = 25.300001
            float physics:lowerLimit = -166.19786
            float physics:upperLimit = 166.19786
            float state:angular:physics:position = 0
            float state:angular:physics:velocity = 0
        }
    }

    over "fr3_link6"
    {
        string isaac:nameOverride (
            displayName = "Name Override"
            doc = "Name override for prim lookup in base name search"
        )
        rel physics:simulationOwner

        over "collisions"
        {
            rel physics:simulationOwner
        }

        over "fr3_joint7"
        {
            float drive:angular:physics:damping = 6000
            float drive:angular:physics:targetPosition = 2
            custom string isaac:nameOverride (
                displayName = "Name Override"
                doc = "Name override for prim lookup in base name search"
            )
            float physics:lowerLimit = -172.79832
            float physics:upperLimit = 172.79832
            float state:angular:physics:position = 0
            float state:angular:physics:velocity = 0
        }
    }

    def Xform "ee" (
        prepend apiSchemas = ["PhysicsRigidBodyAPI", "PhysxRigidBodyAPI", "PhysicsMassAPI"]
    )
    {
        bool physics:kinematicEnabled = 0
        float physics:mass = 1.5
        bool physics:rigidBodyEnabled = 1
        rel physics:simulationOwner
        quatd xformOp:orient = (1, 0, 0, 0)
        double3 xformOp:scale = (0.2, 0.2, 0.14)
        double3 xformOp:translate = (0.088, 0, 0.92)
        uniform token[] xformOpOrder = ["xformOp:translate", "xformOp:orient", "xformOp:scale"]

        def Mesh "Cylinder" (
            delete apiSchemas = ["PhysicsRigidBodyAPI", "PhysxRigidBodyAPI", "PhysicsCollisionAPI", "PhysxCollisionAPI", "PhysicsMeshCollisionAPI", "PhysxConvexHullCollisionAPI"]
            prepend apiSchemas = ["PhysicsCollisionAPI", "PhysxCollisionAPI", "PhysxConvexHullCollisionAPI", "PhysicsMeshCollisionAPI"]
        )
        {
            float3[] extent = [(-0.5, -0.5, -0.5), (0.5, 0.5, 0.5)]
            int[] faceVertexCounts = [4, 4, 4, 4, 4, 4, 4, 4, 4, 4, 4, 4, 4, 4, 4, 4, 4, 4, 4, 4, 4, 4, 4, 4, 4, 4, 4, 4, 4, 4, 4, 4, 3, 3, 3, 3, 3, 3, 3, 3, 3, 3, 3, 3, 3, 3, 3, 3, 3, 3, 3, 3, 3, 3, 3, 3, 3, 3, 3, 3, 3, 3, 3, 3, 3, 3, 3, 3, 3, 3, 3, 3, 3, 3, 3, 3, 3, 3, 3, 3, 3, 3, 3, 3, 3, 3, 3, 3, 3, 3, 3, 3, 3, 3, 3, 3]
            int[] faceVertexIndices = [0, 1, 33, 32, 1, 2, 34, 33, 2, 3, 35, 34, 3, 4, 36, 35, 4, 5, 37, 36, 5, 6, 38, 37, 6, 7, 39, 38, 7, 8, 40, 39, 8, 9, 41, 40, 9, 10, 42, 41, 10, 11, 43, 42, 11, 12, 44, 43, 12, 13, 45, 44, 13, 14, 46, 45, 14, 15, 47, 46, 15, 16, 48, 47, 16, 17, 49, 48, 17, 18, 50, 49, 18, 19, 51, 50, 19, 20, 52, 51, 20, 21, 53, 52, 21, 22, 54, 53, 22, 23, 55, 54, 23, 24, 56, 55, 24, 25, 57, 56, 25, 26, 58, 57, 26, 27, 59, 58, 27, 28, 60, 59, 28, 29, 61, 60, 29, 30, 62, 61, 30, 31, 63, 62, 31, 0, 32, 63, 0, 64, 1, 1, 64, 2, 2, 64, 3, 3, 64, 4, 4, 64, 5, 5, 64, 6, 6, 64, 7, 7, 64, 8, 8, 64, 9, 9, 64, 10, 10, 64, 11, 11, 64, 12, 12, 64, 13, 13, 64, 14, 14, 64, 15, 15, 64, 16, 16, 64, 17, 17, 64, 18, 18, 64, 19, 19, 64, 20, 20, 64, 21, 21, 64, 22, 22, 64, 23, 23, 64, 24, 24, 64, 25, 25, 64, 26, 26, 64, 27, 27, 64, 28, 28, 64, 29, 29, 64, 30, 30, 64, 31, 31, 64, 0, 32, 33, 65, 33, 34, 65, 34, 35, 65, 35, 36, 65, 36, 37, 65, 37, 38, 65, 38, 39, 65, 39, 40, 65, 40, 41, 65, 41, 42, 65, 42, 43, 65, 43, 44, 65, 44, 45, 65, 45, 46, 65, 46, 47, 65, 47, 48, 65, 48, 49, 65, 49, 50, 65, 50, 51, 65, 51, 52, 65, 52, 53, 65, 53, 54, 65, 54, 55, 65, 55, 56, 65, 56, 57, 65, 57, 58, 65, 58, 59, 65, 59, 60, 65, 60, 61, 65, 61, 62, 65, 62, 63, 65, 63, 32, 65]
            normal3f[] normals = [(50, 0, 0), (49.03926, 9.754517, 0), (49.03926, 9.754517, 0), (50, 0, 0), (49.03926, 9.754517, 0), (46.193974, 19.13417, 0), (46.193974, 19.13417, 0), (49.03926, 9.754517, 0), (46.193974, 19.13417, 0), (41.57348, 27.778513, 0), (41.57348, 27.778513, 0), (46.193974, 19.13417, 0), (41.57348, 27.778513, 0), (35.35534, 35.35534, 0), (35.35534, 35.35534, 0), (41.57348, 27.778513, 0), (35.35534, 35.35534, 0), (27.778513, 41.57348, 0), (27.778513, 41.57348, 0), (35.35534, 35.35534, 0), (27.778513, 41.57348, 0), (19.13417, 46.193974, 0), (19.13417, 46.193974, 0), (27.778513, 41.57348, 0), (19.13417, 46.193974, 0), (9.754517, 49.03926, 0), (9.754517, 49.03926, 0), (19.13417, 46.193974, 0), (9.754517, 49.03926, 0), (3.061617e-15, 50, 0), (3.061617e-15, 50, 0), (9.754517, 49.03926, 0), (3.061617e-15, 50, 0), (-9.754517, 49.03926, 0), (-9.754517, 49.03926, 0), (3.061617e-15, 50, 0), (-9.754517, 49.03926, 0), (-19.13417, 46.193974, 0), (-19.13417, 46.193974, 0), (-9.754517, 49.03926, 0), (-19.13417, 46.193974, 0), (-27.778513, 41.57348, 0), (-27.778513, 41.57348, 0), (-19.13417, 46.193974, 0), (-27.778513, 41.57348, 0), (-35.35534, 35.35534, 0), (-35.35534, 35.35534, 0), (-27.778513, 41.57348, 0), (-35.35534, 35.35534, 0), (-41.57348, 27.778513, 0), (-41.57348, 27.778513, 0), (-35.35534, 35.35534, 0), (-41.57348, 27.778513, 0), (-46.193974, 19.13417, 0), (-46.193974, 19.13417, 0), (-41.57348, 27.778513, 0), (-46.193974, 19.13417, 0), (-49.03926, 9.754517, 0), (-49.03926, 9.754517, 0), (-46.193974, 19.13417, 0), (-49.03926, 9.754517, 0), (-50, 6.123234e-15, 0), (-50, 6.123234e-15, 0), (-49.03926, 9.754517, 0), (-50, 6.123234e-15, 0), (-49.03926, -9.754517, 0), (-49.03926, -9.754517, 0), (-50, 6.123234e-15, 0), (-49.03926, -9.754517, 0), (-46.193974, -19.13417, 0), (-46.193974, -19.13417, 0), (-49.03926, -9.754517, 0), (-46.193974, -19.13417, 0), (-41.57348, -27.778513, 0), (-41.57348, -27.778513, 0), (-46.193974, -19.13417, 0), (-41.57348, -27.778513, 0), (-35.35534, -35.35534, 0), (-35.35534, -35.35534, 0), (-41.57348, -27.778513, 0), (-35.35534, -35.35534, 0), (-27.778513, -41.57348, 0), (-27.778513, -41.57348, 0), (-35.35534, -35.35534, 0), (-27.778513, -41.57348, 0), (-19.13417, -46.193974, 0), (-19.13417, -46.193974, 0), (-27.778513, -41.57348, 0), (-19.13417, -46.193974, 0), (-9.754517, -49.03926, 0), (-9.754517, -49.03926, 0), (-19.13417, -46.193974, 0), (-9.754517, -49.03926, 0), (-9.184851e-15, -50, 0), (-9.184851e-15, -50, 0), (-9.754517, -49.03926, 0), (-9.184851e-15, -50, 0), (9.754517, -49.03926, 0), (9.754517, -49.03926, 0), (-9.184851e-15, -50, 0), (9.754517, -49.03926, 0), (19.13417, -46.193974, 0), (19.13417, -46.193974, 0), (9.754517, -49.03926, 0), (19.13417, -46.193974, 0), (27.778513, -41.57348, 0), (27.778513, -41.57348, 0), (19.13417, -46.193974, 0), (27.778513, -41.57348, 0), (35.35534, -35.35534, 0), (35.35534, -35.35534, 0), (27.778513, -41.57348, 0), (35.35534, -35.35534, 0), (41.57348, -27.778513, 0), (41.57348, -27.778513, 0), (35.35534, -35.35534, 0), (41.57348, -27.778513, 0), (46.193974, -19.13417, 0), (46.193974, -19.13417, 0), (41.57348, -27.778513, 0), (46.193974, -19.13417, 0), (49.03926, -9.754517, 0), (49.03926, -9.754517, 0), (46.193974, -19.13417, 0), (49.03926, -9.754517, 0), (50, 0, 0), (50, 0, 0), (49.03926, -9.754517, 0), (0, 0, -1), (0, 0, -1), (0, 0, -1), (0, 0, -1), (0, 0, -1), (0, 0, -1), (0, 0, -1), (0, 0, -1), (0, 0, -1), (0, 0, -1), (0, 0, -1), (0, 0, -1), (0, 0, -1), (0, 0, -1), (0, 0, -1), (0, 0, -1), (0, 0, -1), (0, 0, -1), (0, 0, -1), (0, 0, -1), (0, 0, -1), (0, 0, -1), (0, 0, -1), (0, 0, -1), (0, 0, -1), (0, 0, -1), (0, 0, -1), (0, 0, -1), (0, 0, -1), (0, 0, -1), (0, 0, -1), (0, 0, -1), (0, 0, -1), (0, 0, -1), (0, 0, -1), (0, 0, -1), (0, 0, -1), (0, 0, -1), (0, 0, -1), (0, 0, -1), (0, 0, -1), (0, 0, -1), (0, 0, -1), (0, 0, -1), (0, 0, -1), (0, 0, -1), (0, 0, -1), (0, 0, -1), (0, 0, -1), (0, 0, -1), (0, 0, -1), (0, 0, -1), (0, 0, -1), (0, 0, -1), (0, 0, -1), (0, 0, -1), (0, 0, -1), (0, 0, -1), (0, 0, -1), (0, 0, -1), (0, 0, -1), (0, 0, -1), (0, 0, -1), (0, 0, -1), (0, 0, -1), (0, 0, -1), (0, 0, -1), (0, 0, -1), (0, 0, -1), (0, 0, -1), (0, 0, -1), (0, 0, -1), (0, 0, -1), (0, 0, -1), (0, 0, -1), (0, 0, -1), (0, 0, -1), (0, 0, -1), (0, 0, -1), (0, 0, -1), (0, 0, -1), (0, 0, -1), (0, 0, -1), (0, 0, -1), (0, 0, -1), (0, 0, -1), (0, 0, -1), (0, 0, -1), (0, 0, -1), (0, 0, -1), (0, 0, -1), (0, 0, -1), (0, 0, -1), (0, 0, -1), (0, 0, -1), (0, 0, -1), (0, 0, 1), (0, 0, 1), (0, 0, 1), (0, 0, 1), (0, 0, 1), (0, 0, 1), (0, 0, 1), (0, 0, 1), (0, 0, 1), (0, 0, 1), (0, 0, 1), (0, 0, 1), (0, 0, 1), (0, 0, 1), (0, 0, 1), (0, 0, 1), (0, 0, 1), (0, 0, 1), (0, 0, 1), (0, 0, 1), (0, 0, 1), (0, 0, 1), (0, 0, 1), (0, 0, 1), (0, 0, 1), (0, 0, 1), (0, 0, 1), (0, 0, 1), (0, 0, 1), (0, 0, 1), (0, 0, 1), (0, 0, 1), (0, 0, 1), (0, 0, 1), (0, 0, 1), (0, 0, 1), (0, 0, 1), (0, 0, 1), (0, 0, 1), (0, 0, 1), (0, 0, 1), (0, 0, 1), (0, 0, 1), (0, 0, 1), (0, 0, 1), (0, 0, 1), (0, 0, 1), (0, 0, 1), (0, 0, 1), (0, 0, 1), (0, 0, 1), (0, 0, 1), (0, 0, 1), (0, 0, 1), (0, 0, 1), (0, 0, 1), (0, 0, 1), (0, 0, 1), (0, 0, 1), (0, 0, 1), (0, 0, 1), (0, 0, 1), (0, 0, 1), (0, 0, 1), (0, 0, 1), (0, 0, 1), (0, 0, 1), (0, 0, 1), (0, 0, 1), (0, 0, 1), (0, 0, 1), (0, 0, 1), (0, 0, 1), (0, 0, 1), (0, 0, 1), (0, 0, 1), (0, 0, 1), (0, 0, 1), (0, 0, 1), (0, 0, 1), (0, 0, 1), (0, 0, 1), (0, 0, 1), (0, 0, 1), (0, 0, 1), (0, 0, 1), (0, 0, 1), (0, 0, 1), (0, 0, 1), (0, 0, 1), (0, 0, 1), (0, 0, 1), (0, 0, 1), (0, 0, 1), (0, 0, 1), (0, 0, 1)] (
                interpolation = "faceVarying"
            )
            uniform token physics:approximation = "convexHull"
            bool physics:collisionEnabled = 1
            rel physics:simulationOwner
            point3f[] points = [(0.5, 0, -0.5), (0.4903926, 0.09754517, -0.5), (0.46193972, 0.1913417, -0.5), (0.4157348, 0.27778512, -0.5), (0.35355338, 0.35355338, -0.5), (0.27778512, 0.4157348, -0.5), (0.1913417, 0.46193972, -0.5), (0.09754517, 0.4903926, -0.5), (3.061617e-17, 0.5, -0.5), (-0.09754517, 0.4903926, -0.5), (-0.1913417, 0.46193972, -0.5), (-0.27778512, 0.4157348, -0.5), (-0.35355338, 0.35355338, -0.5), (-0.4157348, 0.27778512, -0.5), (-0.46193972, 0.1913417, -0.5), (-0.4903926, 0.09754517, -0.5), (-0.5, 6.123234e-17, -0.5), (-0.4903926, -0.09754517, -0.5), (-0.46193972, -0.1913417, -0.5), (-0.4157348, -0.27778512, -0.5), (-0.35355338, -0.35355338, -0.5), (-0.27778512, -0.4157348, -0.5), (-0.1913417, -0.46193972, -0.5), (-0.09754517, -0.4903926, -0.5), (-9.184851e-17, -0.5, -0.5), (0.09754517, -0.4903926, -0.5), (0.1913417, -0.46193972, -0.5), (0.27778512, -0.4157348, -0.5), (0.35355338, -0.35355338, -0.5), (0.4157348, -0.27778512, -0.5), (0.46193972, -0.1913417, -0.5), (0.4903926, -0.09754517, -0.5), (0.5, 0, 0.5), (0.4903926, 0.09754517, 0.5), (0.46193972, 0.1913417, 0.5), (0.4157348, 0.27778512, 0.5), (0.35355338, 0.35355338, 0.5), (0.27778512, 0.4157348, 0.5), (0.1913417, 0.46193972, 0.5), (0.09754517, 0.4903926, 0.5), (3.061617e-17, 0.5, 0.5), (-0.09754517, 0.4903926, 0.5), (-0.1913417, 0.46193972, 0.5), (-0.27778512, 0.4157348, 0.5), (-0.35355338, 0.35355338, 0.5), (-0.4157348, 0.27778512, 0.5), (-0.46193972, 0.1913417, 0.5), (-0.4903926, 0.09754517, 0.5), (-0.5, 6.123234e-17, 0.5), (-0.4903926, -0.09754517, 0.5), (-0.46193972, -0.1913417, 0.5), (-0.4157348, -0.27778512, 0.5), (-0.35355338, -0.35355338, 0.5), (-0.27778512, -0.4157348, 0.5), (-0.1913417, -0.46193972, 0.5), (-0.09754517, -0.4903926, 0.5), (-9.184851e-17, -0.5, 0.5), (0.09754517, -0.4903926, 0.5), (0.1913417, -0.46193972, 0.5), (0.27778512, -0.4157348, 0.5), (0.35355338, -0.35355338, 0.5), (0.4157348, -0.27778512, 0.5), (0.46193972, -0.1913417, 0.5), (0.4903926, -0.09754517, 0.5), (0, 0, -0.5), (0, 0, 0.5)]
            texCoord2f[] primvars:st = [(0, 0), (0.03125, 0), (0.03125, 1), (0, 1), (0.03125, 0), (0.0625, 0), (0.0625, 1), (0.03125, 1), (0.0625, 0), (0.09375, 0), (0.09375, 1), (0.0625, 1), (0.09375, 0), (0.125, 0), (0.125, 1), (0.09375, 1), (0.125, 0), (0.15625, 0), (0.15625, 1), (0.125, 1), (0.15625, 0), (0.1875, 0), (0.1875, 1), (0.15625, 1), (0.1875, 0), (0.21875, 0), (0.21875, 1), (0.1875, 1), (0.21875, 0), (0.25, 0), (0.25, 1), (0.21875, 1), (0.25, 0), (0.28125, 0), (0.28125, 1), (0.25, 1), (0.28125, 0), (0.3125, 0), (0.3125, 1), (0.28125, 1), (0.3125, 0), (0.34375, 0), (0.34375, 1), (0.3125, 1), (0.34375, 0), (0.375, 0), (0.375, 1), (0.34375, 1), (0.375, 0), (0.40625, 0), (0.40625, 1), (0.375, 1), (0.40625, 0), (0.4375, 0), (0.4375, 1), (0.40625, 1), (0.4375, 0), (0.46875, 0), (0.46875, 1), (0.4375, 1), (0.46875, 0), (0.5, 0), (0.5, 1), (0.46875, 1), (0.5, 0), (0.53125, 0), (0.53125, 1), (0.5, 1), (0.53125, 0), (0.5625, 0), (0.5625, 1), (0.53125, 1), (0.5625, 0), (0.59375, 0), (0.59375, 1), (0.5625, 1), (0.59375, 0), (0.625, 0), (0.625, 1), (0.59375, 1), (0.625, 0), (0.65625, 0), (0.65625, 1), (0.625, 1), (0.65625, 0), (0.6875, 0), (0.6875, 1), (0.65625, 1), (0.6875, 0), (0.71875, 0), (0.71875, 1), (0.6875, 1), (0.71875, 0), (0.75, 0), (0.75, 1), (0.71875, 1), (0.75, 0), (0.78125, 0), (0.78125, 1), (0.75, 1), (0.78125, 0), (0.8125, 0), (0.8125, 1), (0.78125, 1), (0.8125, 0), (0.84375, 0), (0.84375, 1), (0.8125, 1), (0.84375, 0), (0.875, 0), (0.875, 1), (0.84375, 1), (0.875, 0), (0.90625, 0), (0.90625, 1), (0.875, 1), (0.90625, 0), (0.9375, 0), (0.9375, 1), (0.90625, 1), (0.9375, 0), (0.96875, 0), (0.96875, 1), (0.9375, 1), (0.96875, 0), (1, 0), (1, 1), (0.96875, 1), (1, 0.5), (0.5, 0.5), (0.99039257, 0.40245485), (0.99039257, 0.40245485), (0.5, 0.5), (0.9619397, 0.3086583), (0.9619397, 0.3086583), (0.5, 0.5), (0.91573477, 0.22221488), (0.91573477, 0.22221488), (0.5, 0.5), (0.8535534, 0.14644659), (0.8535534, 0.14644659), (0.5, 0.5), (0.7777851, 0.08426523), (0.7777851, 0.08426523), (0.5, 0.5), (0.6913417, 0.038060308), (0.6913417, 0.038060308), (0.5, 0.5), (0.59754515, 0.009607434), (0.59754515, 0.009607434), (0.5, 0.5), (0.5, 0), (0.5, 0), (0.5, 0.5), (0.40245482, 0.009607434), (0.40245482, 0.009607434), (0.5, 0.5), (0.3086583, 0.038060308), (0.3086583, 0.038060308), (0.5, 0.5), (0.22221488, 0.08426523), (0.22221488, 0.08426523), (0.5, 0.5), (0.14644662, 0.14644659), (0.14644662, 0.14644659), (0.5, 0.5), (0.0842652, 0.22221488), (0.0842652, 0.22221488), (0.5, 0.5), (0.038060278, 0.3086583), (0.038060278, 0.3086583), (0.5, 0.5), (0.0096074045, 0.40245485), (0.0096074045, 0.40245485), (0.5, 0.5), (0, 0.5), (0, 0.5), (0.5, 0.5), (0.0096074045, 0.59754515), (0.0096074045, 0.59754515), (0.5, 0.5), (0.038060278, 0.6913417), (0.038060278, 0.6913417), (0.5, 0.5), (0.0842652, 0.7777851), (0.0842652, 0.7777851), (0.5, 0.5), (0.14644662, 0.8535534), (0.14644662, 0.8535534), (0.5, 0.5), (0.22221488, 0.91573477), (0.22221488, 0.91573477), (0.5, 0.5), (0.3086583, 0.9619397), (0.3086583, 0.9619397), (0.5, 0.5), (0.40245482, 0.99039257), (0.40245482, 0.99039257), (0.5, 0.5), (0.5, 1), (0.5, 1), (0.5, 0.5), (0.59754515, 0.99039257), (0.59754515, 0.99039257), (0.5, 0.5), (0.6913417, 0.9619397), (0.6913417, 0.9619397), (0.5, 0.5), (0.7777851, 0.91573477), (0.7777851, 0.91573477), (0.5, 0.5), (0.8535534, 0.8535534), (0.8535534, 0.8535534), (0.5, 0.5), (0.91573477, 0.7777851), (0.91573477, 0.7777851), (0.5, 0.5), (0.9619397, 0.6913417), (0.9619397, 0.6913417), (0.5, 0.5), (0.99039257, 0.59754515), (0.99039257, 0.59754515), (0.5, 0.5), (1, 0.5), (1, 0.5), (0.99039257, 0.59754515), (0.5, 0.5), (0.99039257, 0.59754515), (0.9619397, 0.6913417), (0.5, 0.5), (0.9619397, 0.6913417), (0.91573477, 0.7777851), (0.5, 0.5), (0.91573477, 0.7777851), (0.8535534, 0.8535534), (0.5, 0.5), (0.8535534, 0.8535534), (0.7777851, 0.91573477), (0.5, 0.5), (0.7777851, 0.91573477), (0.6913417, 0.9619397), (0.5, 0.5), (0.6913417, 0.9619397), (0.59754515, 0.99039257), (0.5, 0.5), (0.59754515, 0.99039257), (0.5, 1), (0.5, 0.5), (0.5, 1), (0.40245482, 0.99039257), (0.5, 0.5), (0.40245482, 0.99039257), (0.3086583, 0.9619397), (0.5, 0.5), (0.3086583, 0.9619397), (0.22221488, 0.91573477), (0.5, 0.5), (0.22221488, 0.91573477), (0.14644662, 0.8535534), (0.5, 0.5), (0.14644662, 0.8535534), (0.0842652, 0.7777851), (0.5, 0.5), (0.0842652, 0.7777851), (0.038060278, 0.6913417), (0.5, 0.5), (0.038060278, 0.6913417), (0.0096074045, 0.59754515), (0.5, 0.5), (0.0096074045, 0.59754515), (0, 0.5), (0.5, 0.5), (0, 0.5), (0.0096074045, 0.40245482), (0.5, 0.5), (0.0096074045, 0.40245482), (0.038060278, 0.3086583), (0.5, 0.5), (0.038060278, 0.3086583), (0.0842652, 0.22221488), (0.5, 0.5), (0.0842652, 0.22221488), (0.14644662, 0.14644662), (0.5, 0.5), (0.14644662, 0.14644662), (0.22221488, 0.0842652), (0.5, 0.5), (0.22221488, 0.0842652), (0.3086583, 0.038060278), (0.5, 0.5), (0.3086583, 0.038060278), (0.40245482, 0.0096074045), (0.5, 0.5), (0.40245482, 0.0096074045), (0.5, 0), (0.5, 0.5), (0.5, 0), (0.59754515, 0.0096074045), (0.5, 0.5), (0.59754515, 0.0096074045), (0.6913417, 0.038060278), (0.5, 0.5), (0.6913417, 0.038060278), (0.7777851, 0.0842652), (0.5, 0.5), (0.7777851, 0.0842652), (0.8535534, 0.14644662), (0.5, 0.5), (0.8535534, 0.14644662), (0.91573477, 0.22221488), (0.5, 0.5), (0.91573477, 0.22221488), (0.9619397, 0.3086583), (0.5, 0.5), (0.9619397, 0.3086583), (0.99039257, 0.40245482), (0.5, 0.5), (0.99039257, 0.40245482), (1, 0.5), (0.5, 0.5)] (
                interpolation = "faceVarying"
            )
            uniform token subdivisionScheme = "none"
            quatd xformOp:orient = (1, 0, 0, 0)
            float3 xformOp:scale = (0.5, 0.5, 1)
            double3 xformOp:translate = (0, 0, 0.5)
            uniform token[] xformOpOrder = ["xformOp:translate", "xformOp:orient", "xformOp:scale"]
        }

        def Xform "tcp" (
            prepend apiSchemas = ["PhysicsRigidBodyAPI", "PhysxRigidBodyAPI", "PhysicsMassAPI"]
        )
        {
            bool physics:kinematicEnabled = 0
            float physics:mass = 0.001
            bool physics:rigidBodyEnabled = 1
            rel physics:simulationOwner
            quatd xformOp:orient = (1, 0, 0, 0)
            double3 xformOp:scale = (1, 1, 1)
            double3 xformOp:translate = (0, 0, 1)
            uniform token[] xformOpOrder = ["xformOp:translate", "xformOp:orient", "xformOp:scale"]
        }

        def PhysicsFixedJoint "tcp_joint" (
            prepend apiSchemas = ["IsaacJointAPI"]
        )
        {
            rel physics:body0 = </fr3/ee>
            rel physics:body1 = </fr3/ee/tcp>
            float physics:breakForce = 3.4028235e38
            float physics:breakTorque = 3.4028235e38
            point3f physics:localPos0 = (0, 0, 1)
            point3f physics:localPos1 = (0, 0, 0)
            quatf physics:localRot0 = (1, 0, 0, 0)
            quatf physics:localRot1 = (1, 0, 0, 0)
        }
    }

    over "root_joint"
    {
        custom string isaac:nameOverride (
            displayName = "Name Override"
            doc = "Name override for prim lookup in base name search"
        )
    }
}

def "Viewport_Measure" (
    hide_in_stage_window = true
    no_delete = true
)
{
    def "measurement_point_to_point" (
        no_delete = true
    )
    {
        custom vector3d[] measure:compute:points = [(0.08715187758207321, -0.04392242431640625, 1.034674286842346), (0.08883951604366305, -0.04924964904785156, 0.9258596301078797)]
        custom double measure:compute:primary = 0.10895805141042159
        custom double[] measure:compute:secondary = []
        custom vector3d[] measure:meta:local_points = [(0.08715187013149261, 0.0016743033798976015, 0.04392237414735077), (-0.07618748062195901, -0.4924964904785156, 0.42059201834606164)]
        custom int[] measure:meta:prim_path_indices = [0, 1]
        custom rel measure:meta:prim_paths_relationship = [
            </fr3/fr3_link6/visuals>,
            </fr3/ee/Cylinder>,
        ]
        custom int measure:meta:tool_mode = 0
        custom int measure:meta:tool_sub_mode = -1
        custom token measure:prop:axis_display = "NONE" (
            allowedTokens = ["NONE", "WORLD", "LOCAL"]
        )
        custom color4f measure:prop:label_color = (0, 1, 1, 1)
        custom token measure:prop:label_size = "MEDIUM" (
            allowedTokens = ["SMALL", "MEDIUM", "LARGE", "EXTRA_LARGE"]
        )
        custom string measure:prop:name = "measurement_point_to_point"
        custom token measure:prop:precision = "HUNDRETH" (
            allowedTokens = ["INTEGER", "TENTH", "HUNDRETH", "THOUSANDTH", "TEN_THOUSANDTH", "HUNDRED_THOUSANDTH"]
        )
        custom token measure:prop:unit = "METERS" (
            allowedTokens = ["CENTIMETERS", "MILLIMETERS", "DECIMETERS", "METERS", "KILOMETERS", "INCHES", "FEET", "MILES"]
        )
        custom bool measure:prop:visible = 1
        custom int measure:uuid = 25050058
    }
}

